{
  "asset": {
    "version": "2.0",
    "generator": "pbrt_to_gltf.py"
  },
  "scene": 0,
  "scenes": [
    {
      "name": "breakfast-room",
      "nodes": [
        54
      ]
    }
  ],
  "nodes": [
    {
      "name": "00_FrostedGlass",
      "mesh": 0
    },
    {
      "name": "01_WhitePlastic",
      "mesh": 1
    },
    {
      "name": "02_WhitePlastic",
      "mesh": 2
    },
    {
      "name": "03_FrostedGlass",
      "mesh": 3
    },
    {
      "name": "04_WhitePlastic",
      "mesh": 4
    },
    {
      "name": "05_WhitePlastic",
      "mesh": 5
    },
    {
      "name": "06_None",
      "mesh": 6
    },
    {
      "name": "07_BlackPaint",
      "mesh": 7
    },
    {
      "name": "08_BlackPaint",
      "mesh": 8
    },
    {
      "name": "09_Ceramic",
      "mesh": 9
    },
    {
      "name": "10_Gold",
      "mesh": 10
    },
    {
      "name": "11_RoughMetal",
      "mesh": 11
    },
    {
      "name": "12_PaintedCeramic",
      "mesh": 12
    },
    {
      "name": "13_Gold",
      "mesh": 13
    },
    {
      "name": "14_Ceramic",
      "mesh": 14
    },
    {
      "name": "15_Ceramic",
      "mesh": 15
    },
    {
      "name": "16_Gold",
      "mesh": 16
    },
    {
      "name": "17_PaintedCeramic",
      "mesh": 17
    },
    {
      "name": "18_Gold",
      "mesh": 18
    },
    {
      "name": "19_Ceramic",
      "mesh": 19
    },
    {
      "name": "20_RoughMetal",
      "mesh": 20
    },
    {
      "name": "21_Ceramic",
      "mesh": 21
    },
    {
      "name": "22_WhitePlastic",
      "mesh": 22
    },
    {
      "name": "23_Chrome",
      "mesh": 23
    },
    {
      "name": "24_BlackRubber",
      "mesh": 24
    },
    {
      "name": "25_WhitePlastic",
      "mesh": 25
    },
    {
      "name": "26_Chrome",
      "mesh": 26
    },
    {
      "name": "27_BlackRubber",
      "mesh": 27
    },
    {
      "name": "28_WhitePlastic",
      "mesh": 28
    },
    {
      "name": "29_Chrome",
      "mesh": 29
    },
    {
      "name": "30_BlackRubber",
      "mesh": 30
    },
    {
      "name": "31_WhitePlastic",
      "mesh": 31
    },
    {
      "name": "32_Chrome",
      "mesh": 32
    },
    {
      "name": "33_BlackRubber",
      "mesh": 33
    },
    {
      "name": "34_WhitePlastic",
      "mesh": 34
    },
    {
      "name": "35_Chrome",
      "mesh": 35
    },
    {
      "name": "36_BlackRubber",
      "mesh": 36
    },
    {
      "name": "37_WhiteMarble",
      "mesh": 37
    },
    {
      "name": "38_FloorTiles",
      "mesh": 38,
      "matrix": [
        1.0,
        0.0,
        0.0,
        0.0,
        0.0,
        1.0,
        0.0,
        0.0,
        0.0,
        0.0,
        1.05106,
        0.0,
        0.0,
        0.0,
        -0.452102,
        1.0
      ]
    },
    {
      "name": "39_Walls",
      "mesh": 39
    },
    {
      "name": "40_WhitePlastic",
      "mesh": 40
    },
    {
      "name": "41_Chrome",
      "mesh": 41
    },
    {
      "name": "42_BlackRubber",
      "mesh": 42
    },
    {
      "name": "43_Ceramic",
      "mesh": 43
    },
    {
      "name": "44_Ceramic",
      "mesh": 44
    },
    {
      "name": "45_Gold",
      "mesh": 45
    },
    {
      "name": "46_RoughMetal",
      "mesh": 46
    },
    {
      "name": "47_PaintedCeramic",
      "mesh": 47
    },
    {
      "name": "48_Gold",
      "mesh": 48
    },
    {
      "name": "49_Ceramic",
      "mesh": 49
    },
    {
      "name": "50_Artwork",
      "mesh": 50,
      "matrix": [
        -1.0,
        0.0,
        1.50996e-07,
        0.0,
        0.0,
        1.0,
        0.0,
        0.0,
        -1.50996e-07,
        0.0,
        -1.0,
        0.0,
        -0.621391,
        4.02309,
        -4.47482,
        1.0
      ]
    },
    {
      "name": "51_SkirtWood",
      "mesh": 51
    },
    {
      "name": "52_Walls",
      "mesh": 52
    },
    {
      "name": "Camera",
      "camera": 0,
      "matrix": [
        0.9999147830593393,
        3.917303190662916e-09,
        0.013084718182592494,
        0.0,
        0.0008356284501055143,
        0.9979583462834424,
        -0.06385752719273695,
        0.0,
        -0.013057998096532405,
        0.06386306157434145,
        0.9978734788490452,
        0.0,
        -0.5873181363670283,
        2.762300154466933,
        9.714294329048483,
        1.0
      ]
    },
    {
      "name": "breakfast-room_root",
      "translation": [
        0.0,
        0.0,
        0.0
      ],
      "children": [
        0,
        1,
        2,
        3,
        4,
        5,
        6,
        7,
        8,
        9,
        10,
        11,
        12,
        13,
        14,
        15,
        16,
        17,
        18,
        19,
        20,
        21,
        22,
        23,
        24,
        25,
        26,
        27,
        28,
        29,
        30,
        31,
        32,
        33,
        34,
        35,
        36,
        37,
        38,
        39,
        40,
        41,
        42,
        43,
        44,
        45,
        46,
        47,
        48,
        49,
        50,
        51,
        52,
        53
      ]
    }
  ],
  "meshes": [
    {
      "name": "00_FrostedGlass",
      "primitives": [
        {
          "attributes": {
            "POSITION": 0,
            "NORMAL": 1,
            "TEXCOORD_0": 2
          },
          "indices": 3,
          "material": 14,
          "mode": 4
        }
      ]
    },
    {
      "name": "01_WhitePlastic",
      "primitives": [
        {
          "attributes": {
            "POSITION": 4,
            "NORMAL": 5,
            "TEXCOORD_0": 6
          },
          "indices": 7,
          "material": 0,
          "mode": 4
        }
      ]
    },
    {
      "name": "02_WhitePlastic",
      "primitives": [
        {
          "attributes": {
            "POSITION": 8,
            "NORMAL": 9,
            "TEXCOORD_0": 10
          },
          "indices": 11,
          "material": 0,
          "mode": 4
        }
      ]
    },
    {
      "name": "03_FrostedGlass",
      "primitives": [
        {
          "attributes": {
            "POSITION": 12,
            "NORMAL": 13,
            "TEXCOORD_0": 14
          },
          "indices": 15,
          "material": 14,
          "mode": 4
        }
      ]
    },
    {
      "name": "04_WhitePlastic",
      "primitives": [
        {
          "attributes": {
            "POSITION": 16,
            "NORMAL": 17,
            "TEXCOORD_0": 18
          },
          "indices": 19,
          "material": 0,
          "mode": 4
        }
      ]
    },
    {
      "name": "05_WhitePlastic",
      "primitives": [
        {
          "attributes": {
            "POSITION": 20,
            "NORMAL": 21,
            "TEXCOORD_0": 22
          },
          "indices": 23,
          "material": 0,
          "mode": 4
        }
      ]
    },
    {
      "name": "06_None",
      "primitives": [
        {
          "attributes": {
            "POSITION": 24,
            "NORMAL": 25,
            "TEXCOORD_0": 26
          },
          "indices": 27,
          "material": 5,
          "mode": 4
        }
      ]
    },
    {
      "name": "07_BlackPaint",
      "primitives": [
        {
          "attributes": {
            "POSITION": 28,
            "NORMAL": 29,
            "TEXCOORD_0": 30
          },
          "indices": 31,
          "material": 7,
          "mode": 4
        }
      ]
    },
    {
      "name": "08_BlackPaint",
      "primitives": [
        {
          "attributes": {
            "POSITION": 32,
            "NORMAL": 33,
            "TEXCOORD_0": 34
          },
          "indices": 35,
          "material": 7,
          "mode": 4
        }
      ]
    },
    {
      "name": "09_Ceramic",
      "primitives": [
        {
          "attributes": {
            "POSITION": 36,
            "NORMAL": 37,
            "TEXCOORD_0": 38
          },
          "indices": 39,
          "material": 10,
          "mode": 4
        }
      ]
    },
    {
      "name": "10_Gold",
      "primitives": [
        {
          "attributes": {
            "POSITION": 40,
            "NORMAL": 41,
            "TEXCOORD_0": 42
          },
          "indices": 43,
          "material": 9,
          "mode": 4
        }
      ]
    },
    {
      "name": "11_RoughMetal",
      "primitives": [
        {
          "attributes": {
            "POSITION": 44,
            "NORMAL": 45,
            "TEXCOORD_0": 46
          },
          "indices": 47,
          "material": 11,
          "mode": 4
        }
      ]
    },
    {
      "name": "12_PaintedCeramic",
      "primitives": [
        {
          "attributes": {
            "POSITION": 48,
            "NORMAL": 49,
            "TEXCOORD_0": 50
          },
          "indices": 51,
          "material": 12,
          "mode": 4
        }
      ]
    },
    {
      "name": "13_Gold",
      "primitives": [
        {
          "attributes": {
            "POSITION": 52,
            "NORMAL": 53,
            "TEXCOORD_0": 54
          },
          "indices": 55,
          "material": 9,
          "mode": 4
        }
      ]
    },
    {
      "name": "14_Ceramic",
      "primitives": [
        {
          "attributes": {
            "POSITION": 56,
            "NORMAL": 57,
            "TEXCOORD_0": 58
          },
          "indices": 59,
          "material": 10,
          "mode": 4
        }
      ]
    },
    {
      "name": "15_Ceramic",
      "primitives": [
        {
          "attributes": {
            "POSITION": 60,
            "NORMAL": 61,
            "TEXCOORD_0": 62
          },
          "indices": 63,
          "material": 10,
          "mode": 4
        }
      ]
    },
    {
      "name": "16_Gold",
      "primitives": [
        {
          "attributes": {
            "POSITION": 64,
            "NORMAL": 65,
            "TEXCOORD_0": 66
          },
          "indices": 67,
          "material": 9,
          "mode": 4
        }
      ]
    },
    {
      "name": "17_PaintedCeramic",
      "primitives": [
        {
          "attributes": {
            "POSITION": 68,
            "NORMAL": 69,
            "TEXCOORD_0": 70
          },
          "indices": 71,
          "material": 12,
          "mode": 4
        }
      ]
    },
    {
      "name": "18_Gold",
      "primitives": [
        {
          "attributes": {
            "POSITION": 72,
            "NORMAL": 73,
            "TEXCOORD_0": 74
          },
          "indices": 75,
          "material": 9,
          "mode": 4
        }
      ]
    },
    {
      "name": "19_Ceramic",
      "primitives": [
        {
          "attributes": {
            "POSITION": 76,
            "NORMAL": 77,
            "TEXCOORD_0": 78
          },
          "indices": 79,
          "material": 10,
          "mode": 4
        }
      ]
    },
    {
      "name": "20_RoughMetal",
      "primitives": [
        {
          "attributes": {
            "POSITION": 80,
            "NORMAL": 81,
            "TEXCOORD_0": 82
          },
          "indices": 83,
          "material": 11,
          "mode": 4
        }
      ]
    },
    {
      "name": "21_Ceramic",
      "primitives": [
        {
          "attributes": {
            "POSITION": 84,
            "NORMAL": 85,
            "TEXCOORD_0": 86
          },
          "indices": 87,
          "material": 10,
          "mode": 4
        }
      ]
    },
    {
      "name": "22_WhitePlastic",
      "primitives": [
        {
          "attributes": {
            "POSITION": 88,
            "NORMAL": 89,
            "TEXCOORD_0": 90
          },
          "indices": 91,
          "material": 0,
          "mode": 4
        }
      ]
    },
    {
      "name": "23_Chrome",
      "primitives": [
        {
          "attributes": {
            "POSITION": 92,
            "NORMAL": 93,
            "TEXCOORD_0": 94
          },
          "indices": 95,
          "material": 1,
          "mode": 4
        }
      ]
    },
    {
      "name": "24_BlackRubber",
      "primitives": [
        {
          "attributes": {
            "POSITION": 96,
            "NORMAL": 97,
            "TEXCOORD_0": 98
          },
          "indices": 99,
          "material": 2,
          "mode": 4
        }
      ]
    },
    {
      "name": "25_WhitePlastic",
      "primitives": [
        {
          "attributes": {
            "POSITION": 100,
            "NORMAL": 101,
            "TEXCOORD_0": 102
          },
          "indices": 103,
          "material": 0,
          "mode": 4
        }
      ]
    },
    {
      "name": "26_Chrome",
      "primitives": [
        {
          "attributes": {
            "POSITION": 104,
            "NORMAL": 105,
            "TEXCOORD_0": 106
          },
          "indices": 107,
          "material": 1,
          "mode": 4
        }
      ]
    },
    {
      "name": "27_BlackRubber",
      "primitives": [
        {
          "attributes": {
            "POSITION": 108,
            "NORMAL": 109,
            "TEXCOORD_0": 110
          },
          "indices": 111,
          "material": 2,
          "mode": 4
        }
      ]
    },
    {
      "name": "28_WhitePlastic",
      "primitives": [
        {
          "attributes": {
            "POSITION": 112,
            "NORMAL": 113,
            "TEXCOORD_0": 114
          },
          "indices": 115,
          "material": 0,
          "mode": 4
        }
      ]
    },
    {
      "name": "29_Chrome",
      "primitives": [
        {
          "attributes": {
            "POSITION": 116,
            "NORMAL": 117,
            "TEXCOORD_0": 118
          },
          "indices": 119,
          "material": 1,
          "mode": 4
        }
      ]
    },
    {
      "name": "30_BlackRubber",
      "primitives": [
        {
          "attributes": {
            "POSITION": 120,
            "NORMAL": 121,
            "TEXCOORD_0": 122
          },
          "indices": 123,
          "material": 2,
          "mode": 4
        }
      ]
    },
    {
      "name": "31_WhitePlastic",
      "primitives": [
        {
          "attributes": {
            "POSITION": 124,
            "NORMAL": 125,
            "TEXCOORD_0": 126
          },
          "indices": 127,
          "material": 0,
          "mode": 4
        }
      ]
    },
    {
      "name": "32_Chrome",
      "primitives": [
        {
          "attributes": {
            "POSITION": 128,
            "NORMAL": 129,
            "TEXCOORD_0": 130
          },
          "indices": 131,
          "material": 1,
          "mode": 4
        }
      ]
    },
    {
      "name": "33_BlackRubber",
      "primitives": [
        {
          "attributes": {
            "POSITION": 132,
            "NORMAL": 133,
            "TEXCOORD_0": 134
          },
          "indices": 135,
          "material": 2,
          "mode": 4
        }
      ]
    },
    {
      "name": "34_WhitePlastic",
      "primitives": [
        {
          "attributes": {
            "POSITION": 136,
            "NORMAL": 137,
            "TEXCOORD_0": 138
          },
          "indices": 139,
          "material": 0,
          "mode": 4
        }
      ]
    },
    {
      "name": "35_Chrome",
      "primitives": [
        {
          "attributes": {
            "POSITION": 140,
            "NORMAL": 141,
            "TEXCOORD_0": 142
          },
          "indices": 143,
          "material": 1,
          "mode": 4
        }
      ]
    },
    {
      "name": "36_BlackRubber",
      "primitives": [
        {
          "attributes": {
            "POSITION": 144,
            "NORMAL": 145,
            "TEXCOORD_0": 146
          },
          "indices": 147,
          "material": 2,
          "mode": 4
        }
      ]
    },
    {
      "name": "37_WhiteMarble",
      "primitives": [
        {
          "attributes": {
            "POSITION": 148,
            "NORMAL": 149,
            "TEXCOORD_0": 150
          },
          "indices": 151,
          "material": 8,
          "mode": 4
        }
      ]
    },
    {
      "name": "38_FloorTiles",
      "primitives": [
        {
          "attributes": {
            "POSITION": 152,
            "NORMAL": 153,
            "TEXCOORD_0": 154
          },
          "indices": 155,
          "material": 6,
          "mode": 4
        }
      ]
    },
    {
      "name": "39_Walls",
      "primitives": [
        {
          "attributes": {
            "POSITION": 156,
            "NORMAL": 157,
            "TEXCOORD_0": 158
          },
          "indices": 159,
          "material": 3,
          "mode": 4
        }
      ]
    },
    {
      "name": "40_WhitePlastic",
      "primitives": [
        {
          "attributes": {
            "POSITION": 160,
            "NORMAL": 161,
            "TEXCOORD_0": 162
          },
          "indices": 163,
          "material": 0,
          "mode": 4
        }
      ]
    },
    {
      "name": "41_Chrome",
      "primitives": [
        {
          "attributes": {
            "POSITION": 164,
            "NORMAL": 165,
            "TEXCOORD_0": 166
          },
          "indices": 167,
          "material": 1,
          "mode": 4
        }
      ]
    },
    {
      "name": "42_BlackRubber",
      "primitives": [
        {
          "attributes": {
            "POSITION": 168,
            "NORMAL": 169,
            "TEXCOORD_0": 170
          },
          "indices": 171,
          "material": 2,
          "mode": 4
        }
      ]
    },
    {
      "name": "43_Ceramic",
      "primitives": [
        {
          "attributes": {
            "POSITION": 172,
            "NORMAL": 173,
            "TEXCOORD_0": 174
          },
          "indices": 175,
          "material": 10,
          "mode": 4
        }
      ]
    },
    {
      "name": "44_Ceramic",
      "primitives": [
        {
          "attributes": {
            "POSITION": 176,
            "NORMAL": 177,
            "TEXCOORD_0": 178
          },
          "indices": 179,
          "material": 10,
          "mode": 4
        }
      ]
    },
    {
      "name": "45_Gold",
      "primitives": [
        {
          "attributes": {
            "POSITION": 180,
            "NORMAL": 181,
            "TEXCOORD_0": 182
          },
          "indices": 183,
          "material": 9,
          "mode": 4
        }
      ]
    },
    {
      "name": "46_RoughMetal",
      "primitives": [
        {
          "attributes": {
            "POSITION": 184,
            "NORMAL": 185,
            "TEXCOORD_0": 186
          },
          "indices": 187,
          "material": 11,
          "mode": 4
        }
      ]
    },
    {
      "name": "47_PaintedCeramic",
      "primitives": [
        {
          "attributes": {
            "POSITION": 188,
            "NORMAL": 189,
            "TEXCOORD_0": 190
          },
          "indices": 191,
          "material": 12,
          "mode": 4
        }
      ]
    },
    {
      "name": "48_Gold",
      "primitives": [
        {
          "attributes": {
            "POSITION": 192,
            "NORMAL": 193,
            "TEXCOORD_0": 194
          },
          "indices": 195,
          "material": 9,
          "mode": 4
        }
      ]
    },
    {
      "name": "49_Ceramic",
      "primitives": [
        {
          "attributes": {
            "POSITION": 196,
            "NORMAL": 197,
            "TEXCOORD_0": 198
          },
          "indices": 199,
          "material": 10,
          "mode": 4
        }
      ]
    },
    {
      "name": "50_Artwork",
      "primitives": [
        {
          "attributes": {
            "POSITION": 200,
            "NORMAL": 201,
            "TEXCOORD_0": 202
          },
          "indices": 203,
          "material": 4,
          "mode": 4
        }
      ]
    },
    {
      "name": "51_SkirtWood",
      "primitives": [
        {
          "attributes": {
            "POSITION": 204,
            "NORMAL": 205,
            "TEXCOORD_0": 206
          },
          "indices": 207,
          "material": 13,
          "mode": 4
        }
      ]
    },
    {
      "name": "52_Walls",
      "primitives": [
        {
          "attributes": {
            "POSITION": 208,
            "NORMAL": 209,
            "TEXCOORD_0": 210
          },
          "indices": 211,
          "material": 3,
          "mode": 4
        }
      ]
    }
  ],
  "materials": [
    {
      "name": "WhitePlastic",
      "doubleSided": true,
      "pbrMetallicRoughness": {
        "baseColorFactor": [
          1.0,
          1.0,
          1.0,
          1.0
        ],
        "metallicFactor": 0.0,
        "roughnessFactor": 1.0
      },
      "extras": {
        "pbrt": {
          "type": "coateddiffuse",
          "reflectance_rgb": [
            1.0,
            1.0,
            1.0
          ]
        }
      }
    },
    {
      "name": "Chrome",
      "doubleSided": true,
      "pbrMetallicRoughness": {
        "baseColorFactor": [
          0.687548,
          0.649066,
          0.687011,
          1.0
        ],
        "metallicFactor": 1.0,
        "roughnessFactor": 0.05
      },
      "extras": {
        "pbrt": {
          "type": "conductor",
          "reflectance_rgb": [
            0.8,
            0.8,
            0.8
          ],
          "eta": [
            4.369683,
            2.916703,
            1.654701
          ],
          "k": [
            5.206434,
            4.231365,
            3.754947
          ],
          "uroughness": 0.05,
          "vroughness": 0.05,
          "remaproughness": false,
          "metallic_base_color": [
            0.687548,
            0.649066,
            0.687011
          ]
        }
      }
    },
    {
      "name": "BlackRubber",
      "doubleSided": true,
      "pbrMetallicRoughness": {
        "baseColorFactor": [
          0.05,
          0.05,
          0.05,
          1.0
        ],
        "metallicFactor": 0.0,
        "roughnessFactor": 1.0
      },
      "extras": {
        "pbrt": {
          "type": "coateddiffuse",
          "reflectance_rgb": [
            0.05,
            0.05,
            0.05
          ]
        }
      }
    },
    {
      "name": "Walls",
      "doubleSided": true,
      "pbrMetallicRoughness": {
        "baseColorFactor": [
          0.2,
          0.2,
          0.2,
          1.0
        ],
        "metallicFactor": 0.0,
        "roughnessFactor": 1.0
      },
      "extras": {
        "pbrt": {
          "type": "diffuse",
          "reflectance_rgb": [
            0.2,
            0.2,
            0.2
          ]
        }
      }
    },
    {
      "name": "Artwork",
      "doubleSided": true,
      "pbrMetallicRoughness": {
        "baseColorFactor": [
          1.0,
          1.0,
          1.0,
          1.0
        ],
        "metallicFactor": 0.0,
        "roughnessFactor": 1.0,
        "baseColorTexture": {
          "index": 0
        }
      },
      "extras": {
        "pbrt": {
          "type": "diffuse",
          "reflectance_rgb": [
            0.8,
            0.8,
            0.8
          ],
          "reflectance_texture": "Texture01",
          "reflectance_texture_type": "imagemap",
          "reflectance_texture_filename": "textures/picture3.tga",
          "reflectance_texture_filter": "trilinear"
        }
      }
    },
    {
      "name": "None",
      "doubleSided": true,
      "pbrMetallicRoughness": {
        "baseColorFactor": [
          0.0,
          0.0,
          0.0,
          1.0
        ],
        "metallicFactor": 0.0,
        "roughnessFactor": 1.0
      },
      "extras": {
        "pbrt": {
          "type": "diffuse",
          "reflectance_rgb": [
            0.0,
            0.0,
            0.0
          ]
        }
      }
    },
    {
      "name": "FloorTiles",
      "doubleSided": true,
      "pbrMetallicRoughness": {
        "baseColorFactor": [
          1.0,
          1.0,
          1.0,
          1.0
        ],
        "metallicFactor": 0.0,
        "roughnessFactor": 1.0,
        "baseColorTexture": {
          "index": 1
        }
      },
      "extras": {
        "pbrt": {
          "type": "diffuse",
          "reflectance_rgb": [
            0.8,
            0.8,
            0.8
          ],
          "reflectance_texture": "Texture02",
          "reflectance_texture_type": "imagemap",
          "reflectance_texture_filename": "textures/Tiles.tga",
          "reflectance_texture_filter": "trilinear"
        }
      }
    },
    {
      "name": "BlackPaint",
      "doubleSided": true,
      "pbrMetallicRoughness": {
        "baseColorFactor": [
          0.01,
          0.01,
          0.01,
          1.0
        ],
        "metallicFactor": 0.0,
        "roughnessFactor": 1.0
      },
      "extras": {
        "pbrt": {
          "type": "coateddiffuse",
          "reflectance_rgb": [
            0.01,
            0.01,
            0.01
          ]
        }
      }
    },
    {
      "name": "WhiteMarble",
      "doubleSided": true,
      "pbrMetallicRoughness": {
        "baseColorFactor": [
          0.325037,
          0.325037,
          0.325037,
          1.0
        ],
        "metallicFactor": 0.0,
        "roughnessFactor": 1.0
      },
      "extras": {
        "pbrt": {
          "type": "diffuse",
          "reflectance_rgb": [
            0.325037,
            0.325037,
            0.325037
          ]
        }
      }
    },
    {
      "name": "Gold",
      "doubleSided": true,
      "pbrMetallicRoughness": {
        "baseColorFactor": [
          0.966663,
          0.80219,
          0.324049,
          1.0
        ],
        "metallicFactor": 1.0,
        "roughnessFactor": 0.1
      },
      "extras": {
        "pbrt": {
          "type": "conductor",
          "reflectance_rgb": [
            0.8,
            0.8,
            0.8
          ],
          "eta": [
            0.143119,
            0.374957,
            1.442479
          ],
          "k": [
            3.98316,
            2.385721,
            1.603215
          ],
          "uroughness": 0.1,
          "vroughness": 0.1,
          "remaproughness": false,
          "metallic_base_color": [
            0.966663,
            0.80219,
            0.324049
          ]
        }
      }
    },
    {
      "name": "Ceramic",
      "doubleSided": true,
      "pbrMetallicRoughness": {
        "baseColorFactor": [
          1.0,
          1.0,
          1.0,
          1.0
        ],
        "metallicFactor": 0.0,
        "roughnessFactor": 1.0
      },
      "extras": {
        "pbrt": {
          "type": "coateddiffuse",
          "reflectance_rgb": [
            1.0,
            1.0,
            1.0
          ]
        }
      }
    },
    {
      "name": "RoughMetal",
      "doubleSided": true,
      "pbrMetallicRoughness": {
        "baseColorFactor": [
          0.928047,
          0.917805,
          0.918909,
          1.0
        ],
        "metallicFactor": 1.0,
        "roughnessFactor": 0.1
      },
      "extras": {
        "pbrt": {
          "type": "conductor",
          "reflectance_rgb": [
            0.8,
            0.8,
            0.8
          ],
          "eta": [
            1.65746,
            0.880369,
            0.521229
          ],
          "k": [
            9.223869,
            6.269523,
            4.837001
          ],
          "uroughness": 0.1,
          "vroughness": 0.1,
          "remaproughness": false,
          "metallic_base_color": [
            0.928047,
            0.917805,
            0.918909
          ]
        }
      }
    },
    {
      "name": "PaintedCeramic",
      "doubleSided": true,
      "pbrMetallicRoughness": {
        "baseColorFactor": [
          1.0,
          1.0,
          1.0,
          1.0
        ],
        "metallicFactor": 0.0,
        "roughnessFactor": 1.0,
        "baseColorTexture": {
          "index": 2
        }
      },
      "extras": {
        "pbrt": {
          "type": "coateddiffuse",
          "reflectance_rgb": [
            0.8,
            0.8,
            0.8
          ],
          "reflectance_texture": "Texture03",
          "reflectance_texture_type": "imagemap",
          "reflectance_texture_filename": "textures/Teacup.tga",
          "reflectance_texture_filter": "trilinear"
        }
      }
    },
    {
      "name": "SkirtWood",
      "doubleSided": true,
      "pbrMetallicRoughness": {
        "baseColorFactor": [
          0.684615,
          0.684615,
          0.684615,
          1.0
        ],
        "metallicFactor": 0.0,
        "roughnessFactor": 1.0
      },
      "extras": {
        "pbrt": {
          "type": "coateddiffuse",
          "reflectance_rgb": [
            0.684615,
            0.684615,
            0.684615
          ]
        }
      }
    },
    {
      "name": "FrostedGlass",
      "doubleSided": true,
      "pbrMetallicRoughness": {
        "baseColorFactor": [
          0.79311,
          0.79311,
          0.79311,
          1.0
        ],
        "metallicFactor": 0.0,
        "roughnessFactor": 1.0
      },
      "extras": {
        "pbrt": {
          "type": "coateddiffuse",
          "reflectance_rgb": [
            0.79311,
            0.79311,
            0.79311
          ]
        }
      }
    }
  ],
  "buffers": [
    {
      "uri": "breakfast_room.bin",
      "byteLength": 12310548
    }
  ],
  "bufferViews": [
    {
      "buffer": 0,
      "byteOffset": 0,
      "byteLength": 4627289
    },
    {
      "buffer": 0,
      "byteOffset": 4627292,
      "byteLength": 1432016
    },
    {
      "buffer": 0,
      "byteOffset": 6059308,
      "byteLength": 37786
    },
    {
      "buffer": 0,
      "byteOffset": 6097096,
      "byteLength": 6924,
      "target": 34962
    },
    {
      "buffer": 0,
      "byteOffset": 6104020,
      "byteLength": 6924,
      "target": 34962
    },
    {
      "buffer": 0,
      "byteOffset": 6110944,
      "byteLength": 4616,
      "target": 34962
    },
    {
      "buffer": 0,
      "byteOffset": 6115560,
      "byteLength": 6336,
      "target": 34963
    },
    {
      "buffer": 0,
      "byteOffset": 6121896,
      "byteLength": 13824,
      "target": 34962
    },
    {
      "buffer": 0,
      "byteOffset": 6135720,
      "byteLength": 13824,
      "target": 34962
    },
    {
      "buffer": 0,
      "byteOffset": 6149544,
      "byteLength": 9216,
      "target": 34962
    },
    {
      "buffer": 0,
      "byteOffset": 6158760,
      "byteLength": 2304,
      "target": 34963
    },
    {
      "buffer": 0,
      "byteOffset": 6161064,
      "byteLength": 20160,
      "target": 34962
    },
    {
      "buffer": 0,
      "byteOffset": 6181224,
      "byteLength": 20160,
      "target": 34962
    },
    {
      "buffer": 0,
      "byteOffset": 6201384,
      "byteLength": 13440,
      "target": 34962
    },
    {
      "buffer": 0,
      "byteOffset": 6214824,
      "byteLength": 18816,
      "target": 34963
    },
    {
      "buffer": 0,
      "byteOffset": 6233640,
      "byteLength": 6924,
      "target": 34962
    },
    {
      "buffer": 0,
      "byteOffset": 6240564,
      "byteLength": 6924,
      "target": 34962
    },
    {
      "buffer": 0,
      "byteOffset": 6247488,
      "byteLength": 4616,
      "target": 34962
    },
    {
      "buffer": 0,
      "byteOffset": 6252104,
      "byteLength": 6336,
      "target": 34963
    },
    {
      "buffer": 0,
      "byteOffset": 6258440,
      "byteLength": 13824,
      "target": 34962
    },
    {
      "buffer": 0,
      "byteOffset": 6272264,
      "byteLength": 13824,
      "target": 34962
    },
    {
      "buffer": 0,
      "byteOffset": 6286088,
      "byteLength": 9216,
      "target": 34962
    },
    {
      "buffer": 0,
      "byteOffset": 6295304,
      "byteLength": 2304,
      "target": 34963
    },
    {
      "buffer": 0,
      "byteOffset": 6297608,
      "byteLength": 20160,
      "target": 34962
    },
    {
      "buffer": 0,
      "byteOffset": 6317768,
      "byteLength": 20160,
      "target": 34962
    },
    {
      "buffer": 0,
      "byteOffset": 6337928,
      "byteLength": 13440,
      "target": 34962
    },
    {
      "buffer": 0,
      "byteOffset": 6351368,
      "byteLength": 18816,
      "target": 34963
    },
    {
      "buffer": 0,
      "byteOffset": 6370184,
      "byteLength": 816,
      "target": 34962
    },
    {
      "buffer": 0,
      "byteOffset": 6371000,
      "byteLength": 816,
      "target": 34962
    },
    {
      "buffer": 0,
      "byteOffset": 6371816,
      "byteLength": 544,
      "target": 34962
    },
    {
      "buffer": 0,
      "byteOffset": 6372360,
      "byteLength": 204,
      "target": 34963
    },
    {
      "buffer": 0,
      "byteOffset": 6372564,
      "byteLength": 192,
      "target": 34962
    },
    {
      "buffer": 0,
      "byteOffset": 6372756,
      "byteLength": 192,
      "target": 34962
    },
    {
      "buffer": 0,
      "byteOffset": 6372948,
      "byteLength": 128,
      "target": 34962
    },
    {
      "buffer": 0,
      "byteOffset": 6373076,
      "byteLength": 48,
      "target": 34963
    },
    {
      "buffer": 0,
      "byteOffset": 6373124,
      "byteLength": 54528,
      "target": 34962
    },
    {
      "buffer": 0,
      "byteOffset": 6427652,
      "byteLength": 54528,
      "target": 34962
    },
    {
      "buffer": 0,
      "byteOffset": 6482180,
      "byteLength": 36352,
      "target": 34962
    },
    {
      "buffer": 0,
      "byteOffset": 6518532,
      "byteLength": 53952,
      "target": 34963
    },
    {
      "buffer": 0,
      "byteOffset": 6572484,
      "byteLength": 48840,
      "target": 34962
    },
    {
      "buffer": 0,
      "byteOffset": 6621324,
      "byteLength": 48840,
      "target": 34962
    },
    {
      "buffer": 0,
      "byteOffset": 6670164,
      "byteLength": 32560,
      "target": 34962
    },
    {
      "buffer": 0,
      "byteOffset": 6702724,
      "byteLength": 45744,
      "target": 34963
    },
    {
      "buffer": 0,
      "byteOffset": 6748468,
      "byteLength": 15120,
      "target": 34962
    },
    {
      "buffer": 0,
      "byteOffset": 6763588,
      "byteLength": 15120,
      "target": 34962
    },
    {
      "buffer": 0,
      "byteOffset": 6778708,
      "byteLength": 10080,
      "target": 34962
    },
    {
      "buffer": 0,
      "byteOffset": 6788788,
      "byteLength": 12096,
      "target": 34963
    },
    {
      "buffer": 0,
      "byteOffset": 6800884,
      "byteLength": 26136,
      "target": 34962
    },
    {
      "buffer": 0,
      "byteOffset": 6827020,
      "byteLength": 26136,
      "target": 34962
    },
    {
      "buffer": 0,
      "byteOffset": 6853156,
      "byteLength": 17424,
      "target": 34962
    },
    {
      "buffer": 0,
      "byteOffset": 6870580,
      "byteLength": 26112,
      "target": 34963
    },
    {
      "buffer": 0,
      "byteOffset": 6896692,
      "byteLength": 1728,
      "target": 34962
    },
    {
      "buffer": 0,
      "byteOffset": 6898420,
      "byteLength": 1728,
      "target": 34962
    },
    {
      "buffer": 0,
      "byteOffset": 6900148,
      "byteLength": 1152,
      "target": 34962
    },
    {
      "buffer": 0,
      "byteOffset": 6901300,
      "byteLength": 960,
      "target": 34963
    },
    {
      "buffer": 0,
      "byteOffset": 6902260,
      "byteLength": 4800,
      "target": 34962
    },
    {
      "buffer": 0,
      "byteOffset": 6907060,
      "byteLength": 4800,
      "target": 34962
    },
    {
      "buffer": 0,
      "byteOffset": 6911860,
      "byteLength": 3200,
      "target": 34962
    },
    {
      "buffer": 0,
      "byteOffset": 6915060,
      "byteLength": 3360,
      "target": 34963
    },
    {
      "buffer": 0,
      "byteOffset": 6918420,
      "byteLength": 5784,
      "target": 34962
    },
    {
      "buffer": 0,
      "byteOffset": 6924204,
      "byteLength": 5784,
      "target": 34962
    },
    {
      "buffer": 0,
      "byteOffset": 6929988,
      "byteLength": 3856,
      "target": 34962
    },
    {
      "buffer": 0,
      "byteOffset": 6933844,
      "byteLength": 4320,
      "target": 34963
    },
    {
      "buffer": 0,
      "byteOffset": 6938164,
      "byteLength": 48840,
      "target": 34962
    },
    {
      "buffer": 0,
      "byteOffset": 6987004,
      "byteLength": 48840,
      "target": 34962
    },
    {
      "buffer": 0,
      "byteOffset": 7035844,
      "byteLength": 32560,
      "target": 34962
    },
    {
      "buffer": 0,
      "byteOffset": 7068404,
      "byteLength": 45744,
      "target": 34963
    },
    {
      "buffer": 0,
      "byteOffset": 7114148,
      "byteLength": 15120,
      "target": 34962
    },
    {
      "buffer": 0,
      "byteOffset": 7129268,
      "byteLength": 15120,
      "target": 34962
    },
    {
      "buffer": 0,
      "byteOffset": 7144388,
      "byteLength": 10080,
      "target": 34962
    },
    {
      "buffer": 0,
      "byteOffset": 7154468,
      "byteLength": 12096,
      "target": 34963
    },
    {
      "buffer": 0,
      "byteOffset": 7166564,
      "byteLength": 1728,
      "target": 34962
    },
    {
      "buffer": 0,
      "byteOffset": 7168292,
      "byteLength": 1728,
      "target": 34962
    },
    {
      "buffer": 0,
      "byteOffset": 7170020,
      "byteLength": 1152,
      "target": 34962
    },
    {
      "buffer": 0,
      "byteOffset": 7171172,
      "byteLength": 960,
      "target": 34963
    },
    {
      "buffer": 0,
      "byteOffset": 7172132,
      "byteLength": 4800,
      "target": 34962
    },
    {
      "buffer": 0,
      "byteOffset": 7176932,
      "byteLength": 4800,
      "target": 34962
    },
    {
      "buffer": 0,
      "byteOffset": 7181732,
      "byteLength": 3200,
      "target": 34962
    },
    {
      "buffer": 0,
      "byteOffset": 7184932,
      "byteLength": 3360,
      "target": 34963
    },
    {
      "buffer": 0,
      "byteOffset": 7188292,
      "byteLength": 5784,
      "target": 34962
    },
    {
      "buffer": 0,
      "byteOffset": 7194076,
      "byteLength": 5784,
      "target": 34962
    },
    {
      "buffer": 0,
      "byteOffset": 7199860,
      "byteLength": 3856,
      "target": 34962
    },
    {
      "buffer": 0,
      "byteOffset": 7203716,
      "byteLength": 4320,
      "target": 34963
    },
    {
      "buffer": 0,
      "byteOffset": 7208036,
      "byteLength": 26136,
      "target": 34962
    },
    {
      "buffer": 0,
      "byteOffset": 7234172,
      "byteLength": 26136,
      "target": 34962
    },
    {
      "buffer": 0,
      "byteOffset": 7260308,
      "byteLength": 17424,
      "target": 34962
    },
    {
      "buffer": 0,
      "byteOffset": 7277732,
      "byteLength": 26112,
      "target": 34963
    },
    {
      "buffer": 0,
      "byteOffset": 7303844,
      "byteLength": 39240,
      "target": 34962
    },
    {
      "buffer": 0,
      "byteOffset": 7343084,
      "byteLength": 39240,
      "target": 34962
    },
    {
      "buffer": 0,
      "byteOffset": 7382324,
      "byteLength": 26160,
      "target": 34962
    },
    {
      "buffer": 0,
      "byteOffset": 7408484,
      "byteLength": 37920,
      "target": 34963
    },
    {
      "buffer": 0,
      "byteOffset": 7446404,
      "byteLength": 80232,
      "target": 34962
    },
    {
      "buffer": 0,
      "byteOffset": 7526636,
      "byteLength": 80232,
      "target": 34962
    },
    {
      "buffer": 0,
      "byteOffset": 7606868,
      "byteLength": 53488,
      "target": 34962
    },
    {
      "buffer": 0,
      "byteOffset": 7660356,
      "byteLength": 79488,
      "target": 34963
    },
    {
      "buffer": 0,
      "byteOffset": 7739844,
      "byteLength": 88848,
      "target": 34962
    },
    {
      "buffer": 0,
      "byteOffset": 7828692,
      "byteLength": 88848,
      "target": 34962
    },
    {
      "buffer": 0,
      "byteOffset": 7917540,
      "byteLength": 59232,
      "target": 34962
    },
    {
      "buffer": 0,
      "byteOffset": 7976772,
      "byteLength": 86880,
      "target": 34963
    },
    {
      "buffer": 0,
      "byteOffset": 8063652,
      "byteLength": 17904,
      "target": 34962
    },
    {
      "buffer": 0,
      "byteOffset": 8081556,
      "byteLength": 17904,
      "target": 34962
    },
    {
      "buffer": 0,
      "byteOffset": 8099460,
      "byteLength": 11936,
      "target": 34962
    },
    {
      "buffer": 0,
      "byteOffset": 8111396,
      "byteLength": 13920,
      "target": 34963
    },
    {
      "buffer": 0,
      "byteOffset": 8125316,
      "byteLength": 80232,
      "target": 34962
    },
    {
      "buffer": 0,
      "byteOffset": 8205548,
      "byteLength": 80232,
      "target": 34962
    },
    {
      "buffer": 0,
      "byteOffset": 8285780,
      "byteLength": 53488,
      "target": 34962
    },
    {
      "buffer": 0,
      "byteOffset": 8339268,
      "byteLength": 79488,
      "target": 34963
    },
    {
      "buffer": 0,
      "byteOffset": 8418756,
      "byteLength": 88848,
      "target": 34962
    },
    {
      "buffer": 0,
      "byteOffset": 8507604,
      "byteLength": 88848,
      "target": 34962
    },
    {
      "buffer": 0,
      "byteOffset": 8596452,
      "byteLength": 59232,
      "target": 34962
    },
    {
      "buffer": 0,
      "byteOffset": 8655684,
      "byteLength": 86880,
      "target": 34963
    },
    {
      "buffer": 0,
      "byteOffset": 8742564,
      "byteLength": 17904,
      "target": 34962
    },
    {
      "buffer": 0,
      "byteOffset": 8760468,
      "byteLength": 17904,
      "target": 34962
    },
    {
      "buffer": 0,
      "byteOffset": 8778372,
      "byteLength": 11936,
      "target": 34962
    },
    {
      "buffer": 0,
      "byteOffset": 8790308,
      "byteLength": 13920,
      "target": 34963
    },
    {
      "buffer": 0,
      "byteOffset": 8804228,
      "byteLength": 80232,
      "target": 34962
    },
    {
      "buffer": 0,
      "byteOffset": 8884460,
      "byteLength": 80232,
      "target": 34962
    },
    {
      "buffer": 0,
      "byteOffset": 8964692,
      "byteLength": 53488,
      "target": 34962
    },
    {
      "buffer": 0,
      "byteOffset": 9018180,
      "byteLength": 79488,
      "target": 34963
    },
    {
      "buffer": 0,
      "byteOffset": 9097668,
      "byteLength": 88848,
      "target": 34962
    },
    {
      "buffer": 0,
      "byteOffset": 9186516,
      "byteLength": 88848,
      "target": 34962
    },
    {
      "buffer": 0,
      "byteOffset": 9275364,
      "byteLength": 59232,
      "target": 34962
    },
    {
      "buffer": 0,
      "byteOffset": 9334596,
      "byteLength": 86880,
      "target": 34963
    },
    {
      "buffer": 0,
      "byteOffset": 9421476,
      "byteLength": 17904,
      "target": 34962
    },
    {
      "buffer": 0,
      "byteOffset": 9439380,
      "byteLength": 17904,
      "target": 34962
    },
    {
      "buffer": 0,
      "byteOffset": 9457284,
      "byteLength": 11936,
      "target": 34962
    },
    {
      "buffer": 0,
      "byteOffset": 9469220,
      "byteLength": 13920,
      "target": 34963
    },
    {
      "buffer": 0,
      "byteOffset": 9483140,
      "byteLength": 80232,
      "target": 34962
    },
    {
      "buffer": 0,
      "byteOffset": 9563372,
      "byteLength": 80232,
      "target": 34962
    },
    {
      "buffer": 0,
      "byteOffset": 9643604,
      "byteLength": 53488,
      "target": 34962
    },
    {
      "buffer": 0,
      "byteOffset": 9697092,
      "byteLength": 79488,
      "target": 34963
    },
    {
      "buffer": 0,
      "byteOffset": 9776580,
      "byteLength": 88848,
      "target": 34962
    },
    {
      "buffer": 0,
      "byteOffset": 9865428,
      "byteLength": 88848,
      "target": 34962
    },
    {
      "buffer": 0,
      "byteOffset": 9954276,
      "byteLength": 59232,
      "target": 34962
    },
    {
      "buffer": 0,
      "byteOffset": 10013508,
      "byteLength": 86880,
      "target": 34963
    },
    {
      "buffer": 0,
      "byteOffset": 10100388,
      "byteLength": 17904,
      "target": 34962
    },
    {
      "buffer": 0,
      "byteOffset": 10118292,
      "byteLength": 17904,
      "target": 34962
    },
    {
      "buffer": 0,
      "byteOffset": 10136196,
      "byteLength": 11936,
      "target": 34962
    },
    {
      "buffer": 0,
      "byteOffset": 10148132,
      "byteLength": 13920,
      "target": 34963
    },
    {
      "buffer": 0,
      "byteOffset": 10162052,
      "byteLength": 80232,
      "target": 34962
    },
    {
      "buffer": 0,
      "byteOffset": 10242284,
      "byteLength": 80232,
      "target": 34962
    },
    {
      "buffer": 0,
      "byteOffset": 10322516,
      "byteLength": 53488,
      "target": 34962
    },
    {
      "buffer": 0,
      "byteOffset": 10376004,
      "byteLength": 79488,
      "target": 34963
    },
    {
      "buffer": 0,
      "byteOffset": 10455492,
      "byteLength": 88848,
      "target": 34962
    },
    {
      "buffer": 0,
      "byteOffset": 10544340,
      "byteLength": 88848,
      "target": 34962
    },
    {
      "buffer": 0,
      "byteOffset": 10633188,
      "byteLength": 59232,
      "target": 34962
    },
    {
      "buffer": 0,
      "byteOffset": 10692420,
      "byteLength": 86880,
      "target": 34963
    },
    {
      "buffer": 0,
      "byteOffset": 10779300,
      "byteLength": 17904,
      "target": 34962
    },
    {
      "buffer": 0,
      "byteOffset": 10797204,
      "byteLength": 17904,
      "target": 34962
    },
    {
      "buffer": 0,
      "byteOffset": 10815108,
      "byteLength": 11936,
      "target": 34962
    },
    {
      "buffer": 0,
      "byteOffset": 10827044,
      "byteLength": 13920,
      "target": 34963
    },
    {
      "buffer": 0,
      "byteOffset": 10840964,
      "byteLength": 1152,
      "target": 34962
    },
    {
      "buffer": 0,
      "byteOffset": 10842116,
      "byteLength": 1152,
      "target": 34962
    },
    {
      "buffer": 0,
      "byteOffset": 10843268,
      "byteLength": 768,
      "target": 34962
    },
    {
      "buffer": 0,
      "byteOffset": 10844036,
      "byteLength": 264,
      "target": 34963
    },
    {
      "buffer": 0,
      "byteOffset": 10844300,
      "byteLength": 72,
      "target": 34962
    },
    {
      "buffer": 0,
      "byteOffset": 10844372,
      "byteLength": 72,
      "target": 34962
    },
    {
      "buffer": 0,
      "byteOffset": 10844444,
      "byteLength": 48,
      "target": 34962
    },
    {
      "buffer": 0,
      "byteOffset": 10844492,
      "byteLength": 24,
      "target": 34963
    },
    {
      "buffer": 0,
      "byteOffset": 10844516,
      "byteLength": 456,
      "target": 34962
    },
    {
      "buffer": 0,
      "byteOffset": 10844972,
      "byteLength": 456,
      "target": 34962
    },
    {
      "buffer": 0,
      "byteOffset": 10845428,
      "byteLength": 304,
      "target": 34962
    },
    {
      "buffer": 0,
      "byteOffset": 10845732,
      "byteLength": 180,
      "target": 34963
    },
    {
      "buffer": 0,
      "byteOffset": 10845912,
      "byteLength": 80232,
      "target": 34962
    },
    {
      "buffer": 0,
      "byteOffset": 10926144,
      "byteLength": 80232,
      "target": 34962
    },
    {
      "buffer": 0,
      "byteOffset": 11006376,
      "byteLength": 53488,
      "target": 34962
    },
    {
      "buffer": 0,
      "byteOffset": 11059864,
      "byteLength": 79488,
      "target": 34963
    },
    {
      "buffer": 0,
      "byteOffset": 11139352,
      "byteLength": 88848,
      "target": 34962
    },
    {
      "buffer": 0,
      "byteOffset": 11228200,
      "byteLength": 88848,
      "target": 34962
    },
    {
      "buffer": 0,
      "byteOffset": 11317048,
      "byteLength": 59232,
      "target": 34962
    },
    {
      "buffer": 0,
      "byteOffset": 11376280,
      "byteLength": 86880,
      "target": 34963
    },
    {
      "buffer": 0,
      "byteOffset": 11463160,
      "byteLength": 17904,
      "target": 34962
    },
    {
      "buffer": 0,
      "byteOffset": 11481064,
      "byteLength": 17904,
      "target": 34962
    },
    {
      "buffer": 0,
      "byteOffset": 11498968,
      "byteLength": 11936,
      "target": 34962
    },
    {
      "buffer": 0,
      "byteOffset": 11510904,
      "byteLength": 13920,
      "target": 34963
    },
    {
      "buffer": 0,
      "byteOffset": 11524824,
      "byteLength": 109800,
      "target": 34962
    },
    {
      "buffer": 0,
      "byteOffset": 11634624,
      "byteLength": 109800,
      "target": 34962
    },
    {
      "buffer": 0,
      "byteOffset": 11744424,
      "byteLength": 73200,
      "target": 34962
    },
    {
      "buffer": 0,
      "byteOffset": 11817624,
      "byteLength": 109056,
      "target": 34963
    },
    {
      "buffer": 0,
      "byteOffset": 11926680,
      "byteLength": 48840,
      "target": 34962
    },
    {
      "buffer": 0,
      "byteOffset": 11975520,
      "byteLength": 48840,
      "target": 34962
    },
    {
      "buffer": 0,
      "byteOffset": 12024360,
      "byteLength": 32560,
      "target": 34962
    },
    {
      "buffer": 0,
      "byteOffset": 12056920,
      "byteLength": 45744,
      "target": 34963
    },
    {
      "buffer": 0,
      "byteOffset": 12102664,
      "byteLength": 15120,
      "target": 34962
    },
    {
      "buffer": 0,
      "byteOffset": 12117784,
      "byteLength": 15120,
      "target": 34962
    },
    {
      "buffer": 0,
      "byteOffset": 12132904,
      "byteLength": 10080,
      "target": 34962
    },
    {
      "buffer": 0,
      "byteOffset": 12142984,
      "byteLength": 12096,
      "target": 34963
    },
    {
      "buffer": 0,
      "byteOffset": 12155080,
      "byteLength": 26136,
      "target": 34962
    },
    {
      "buffer": 0,
      "byteOffset": 12181216,
      "byteLength": 26136,
      "target": 34962
    },
    {
      "buffer": 0,
      "byteOffset": 12207352,
      "byteLength": 17424,
      "target": 34962
    },
    {
      "buffer": 0,
      "byteOffset": 12224776,
      "byteLength": 26112,
      "target": 34963
    },
    {
      "buffer": 0,
      "byteOffset": 12250888,
      "byteLength": 1728,
      "target": 34962
    },
    {
      "buffer": 0,
      "byteOffset": 12252616,
      "byteLength": 1728,
      "target": 34962
    },
    {
      "buffer": 0,
      "byteOffset": 12254344,
      "byteLength": 1152,
      "target": 34962
    },
    {
      "buffer": 0,
      "byteOffset": 12255496,
      "byteLength": 960,
      "target": 34963
    },
    {
      "buffer": 0,
      "byteOffset": 12256456,
      "byteLength": 4800,
      "target": 34962
    },
    {
      "buffer": 0,
      "byteOffset": 12261256,
      "byteLength": 4800,
      "target": 34962
    },
    {
      "buffer": 0,
      "byteOffset": 12266056,
      "byteLength": 3200,
      "target": 34962
    },
    {
      "buffer": 0,
      "byteOffset": 12269256,
      "byteLength": 3360,
      "target": 34963
    },
    {
      "buffer": 0,
      "byteOffset": 12272616,
      "byteLength": 5784,
      "target": 34962
    },
    {
      "buffer": 0,
      "byteOffset": 12278400,
      "byteLength": 5784,
      "target": 34962
    },
    {
      "buffer": 0,
      "byteOffset": 12284184,
      "byteLength": 3856,
      "target": 34962
    },
    {
      "buffer": 0,
      "byteOffset": 12288040,
      "byteLength": 4320,
      "target": 34963
    },
    {
      "buffer": 0,
      "byteOffset": 12292360,
      "byteLength": 5640,
      "target": 34962
    },
    {
      "buffer": 0,
      "byteOffset": 12298000,
      "byteLength": 5640,
      "target": 34962
    },
    {
      "buffer": 0,
      "byteOffset": 12303640,
      "byteLength": 3760,
      "target": 34962
    },
    {
      "buffer": 0,
      "byteOffset": 12307400,
      "byteLength": 1020,
      "target": 34963
    },
    {
      "buffer": 0,
      "byteOffset": 12308420,
      "byteLength": 696,
      "target": 34962
    },
    {
      "buffer": 0,
      "byteOffset": 12309116,
      "byteLength": 696,
      "target": 34962
    },
    {
      "buffer": 0,
      "byteOffset": 12309812,
      "byteLength": 464,
      "target": 34962
    },
    {
      "buffer": 0,
      "byteOffset": 12310276,
      "byteLength": 132,
      "target": 34963
    },
    {
      "buffer": 0,
      "byteOffset": 12310408,
      "byteLength": 48,
      "target": 34962
    },
    {
      "buffer": 0,
      "byteOffset": 12310456,
      "byteLength": 48,
      "target": 34962
    },
    {
      "buffer": 0,
      "byteOffset": 12310504,
      "byteLength": 32,
      "target": 34962
    },
    {
      "buffer": 0,
      "byteOffset": 12310536,
      "byteLength": 12,
      "target": 34963
    }
  ],
  "accessors": [
    {
      "bufferView": 3,
      "componentType": 5126,
      "count": 577,
      "type": "VEC3",
      "min": [
        0.36063501238822937,
        3.636970043182373,
        -2.535339117050171
      ],
      "max": [
        1.5422309637069702,
        4.187749862670898,
        -1.3537429571151733
      ]
    },
    {
      "bufferView": 4,
      "componentType": 5126,
      "count": 577,
      "type": "VEC3"
    },
    {
      "bufferView": 5,
      "componentType": 5126,
      "count": 577,
      "type": "VEC2"
    },
    {
      "bufferView": 6,
      "componentType": 5123,
      "count": 3168,
      "type": "SCALAR"
    },
    {
      "bufferView": 7,
      "componentType": 5126,
      "count": 1152,
      "type": "VEC3",
      "min": [
        0.8830689787864685,
        4.368488788604736,
        -1.9542789459228516
      ],
      "max": [
        1.017827033996582,
        4.503246784210205,
        -1.9350279569625854
      ]
    },
    {
      "bufferView": 8,
      "componentType": 5126,
      "count": 1152,
      "type": "VEC3"
    },
    {
      "bufferView": 9,
      "componentType": 5126,
      "count": 1152,
      "type": "VEC2"
    },
    {
      "bufferView": 10,
      "componentType": 5123,
      "count": 1152,
      "type": "SCALAR"
    },
    {
      "bufferView": 11,
      "componentType": 5126,
      "count": 1680,
      "type": "VEC3",
      "min": [
        0.33602601289749146,
        3.602452039718628,
        -2.559947967529297
      ],
      "max": [
        1.5668400526046753,
        7.8846659660339355,
        -1.3291339874267578
      ]
    },
    {
      "bufferView": 12,
      "componentType": 5126,
      "count": 1680,
      "type": "VEC3"
    },
    {
      "bufferView": 13,
      "componentType": 5126,
      "count": 1680,
      "type": "VEC2"
    },
    {
      "bufferView": 14,
      "componentType": 5123,
      "count": 9408,
      "type": "SCALAR"
    },
    {
      "bufferView": 15,
      "componentType": 5126,
      "count": 577,
      "type": "VEC3",
      "min": [
        -2.7820401191711426,
        3.636970043182373,
        -2.535339117050171
      ],
      "max": [
        -1.6004430055618286,
        4.187749862670898,
        -1.3537429571151733
      ]
    },
    {
      "bufferView": 16,
      "componentType": 5126,
      "count": 577,
      "type": "VEC3"
    },
    {
      "bufferView": 17,
      "componentType": 5126,
      "count": 577,
      "type": "VEC2"
    },
    {
      "bufferView": 18,
      "componentType": 5123,
      "count": 3168,
      "type": "SCALAR"
    },
    {
      "bufferView": 19,
      "componentType": 5126,
      "count": 1152,
      "type": "VEC3",
      "min": [
        -2.259605884552002,
        4.368488788604736,
        -1.9542789459228516
      ],
      "max": [
        -2.124846935272217,
        4.503246784210205,
        -1.9350279569625854
      ]
    },
    {
      "bufferView": 20,
      "componentType": 5126,
      "count": 1152,
      "type": "VEC3"
    },
    {
      "bufferView": 21,
      "componentType": 5126,
      "count": 1152,
      "type": "VEC2"
    },
    {
      "bufferView": 22,
      "componentType": 5123,
      "count": 1152,
      "type": "SCALAR"
    },
    {
      "bufferView": 23,
      "componentType": 5126,
      "count": 1680,
      "type": "VEC3",
      "min": [
        -2.806648015975952,
        3.602452039718628,
        -2.559947967529297
      ],
      "max": [
        -1.575834035873413,
        7.884665012359619,
        -1.3291339874267578
      ]
    },
    {
      "bufferView": 24,
      "componentType": 5126,
      "count": 1680,
      "type": "VEC3"
    },
    {
      "bufferView": 25,
      "componentType": 5126,
      "count": 1680,
      "type": "VEC2"
    },
    {
      "bufferView": 26,
      "componentType": 5123,
      "count": 9408,
      "type": "SCALAR"
    },
    {
      "bufferView": 27,
      "componentType": 5126,
      "count": 68,
      "type": "VEC3",
      "min": [
        5.030632972717285,
        1.96002995967865,
        -4.140110015869141
      ],
      "max": [
        5.26328706741333,
        6.7600297927856445,
        2.913640022277832
      ]
    },
    {
      "bufferView": 28,
      "componentType": 5126,
      "count": 68,
      "type": "VEC3"
    },
    {
      "bufferView": 29,
      "componentType": 5126,
      "count": 68,
      "type": "VEC2"
    },
    {
      "bufferView": 30,
      "componentType": 5123,
      "count": 102,
      "type": "SCALAR"
    },
    {
      "bufferView": 31,
      "componentType": 5126,
      "count": 16,
      "type": "VEC3",
      "min": [
        -3.4348089694976807,
        0.7814859747886658,
        -3.0731239318847656
      ],
      "max": [
        2.150217056274414,
        0.7814859747886658,
        -0.7347710132598877
      ]
    },
    {
      "bufferView": 32,
      "componentType": 5126,
      "count": 16,
      "type": "VEC3"
    },
    {
      "bufferView": 33,
      "componentType": 5126,
      "count": 16,
      "type": "VEC2"
    },
    {
      "bufferView": 34,
      "componentType": 5123,
      "count": 24,
      "type": "SCALAR"
    },
    {
      "bufferView": 35,
      "componentType": 5126,
      "count": 4544,
      "type": "VEC3",
      "min": [
        -3.467742919921875,
        -1.4206279516220093,
        -3.109484910964966
      ],
      "max": [
        2.1831510066986084,
        0.7814859747886658,
        -0.6984099745750427
      ]
    },
    {
      "bufferView": 36,
      "componentType": 5126,
      "count": 4544,
      "type": "VEC3"
    },
    {
      "bufferView": 37,
      "componentType": 5126,
      "count": 4544,
      "type": "VEC2"
    },
    {
      "bufferView": 38,
      "componentType": 5123,
      "count": 26976,
      "type": "SCALAR"
    },
    {
      "bufferView": 39,
      "componentType": 5126,
      "count": 4070,
      "type": "VEC3",
      "min": [
        -3.1177399158477783,
        0.9162729978561401,
        -2.1045539379119873
      ],
      "max": [
        -2.7727088928222656,
        1.1831129789352417,
        -1.7349499464035034
      ]
    },
    {
      "bufferView": 40,
      "componentType": 5126,
      "count": 4070,
      "type": "VEC3"
    },
    {
      "bufferView": 41,
      "componentType": 5126,
      "count": 4070,
      "type": "VEC2"
    },
    {
      "bufferView": 42,
      "componentType": 5123,
      "count": 22872,
      "type": "SCALAR"
    },
    {
      "bufferView": 43,
      "componentType": 5126,
      "count": 1260,
      "type": "VEC3",
      "min": [
        -3.1177399158477783,
        0.9168540239334106,
        -2.1045539379119873
      ],
      "max": [
        -2.7727088928222656,
        1.175549030303955,
        -1.7595230340957642
      ]
    },
    {
      "bufferView": 44,
      "componentType": 5126,
      "count": 1260,
      "type": "VEC3"
    },
    {
      "bufferView": 45,
      "componentType": 5126,
      "count": 1260,
      "type": "VEC2"
    },
    {
      "bufferView": 46,
      "componentType": 5123,
      "count": 6048,
      "type": "SCALAR"
    },
    {
      "bufferView": 47,
      "componentType": 5126,
      "count": 2178,
      "type": "VEC3",
      "min": [
        -3.2285730838775635,
        0.9226279854774475,
        -2.092442035675049
      ],
      "max": [
        -2.9831690788269043,
        0.9492629766464233,
        -1.798200011253357
      ]
    },
    {
      "bufferView": 48,
      "componentType": 5126,
      "count": 2178,
      "type": "VEC3"
    },
    {
      "bufferView": 49,
      "componentType": 5126,
      "count": 2178,
      "type": "VEC2"
    },
    {
      "bufferView": 50,
      "componentType": 5123,
      "count": 13056,
      "type": "SCALAR"
    },
    {
      "bufferView": 51,
      "componentType": 5126,
      "count": 144,
      "type": "VEC3",
      "min": [
        -3.202863931655884,
        0.924892008304596,
        -2.1896779537200928
      ],
      "max": [
        -2.6875851154327393,
        0.9415540099143982,
        -1.6743990182876587
      ]
    },
    {
      "bufferView": 52,
      "componentType": 5126,
      "count": 144,
      "type": "VEC3"
    },
    {
      "bufferView": 53,
      "componentType": 5126,
      "count": 144,
      "type": "VEC2"
    },
    {
      "bufferView": 54,
      "componentType": 5123,
      "count": 480,
      "type": "SCALAR"
    },
    {
      "bufferView": 55,
      "componentType": 5126,
      "count": 400,
      "type": "VEC3",
      "min": [
        -3.20743989944458,
        0.9160419702529907,
        -2.194253921508789
      ],
      "max": [
        -2.683008909225464,
        0.9405410289764404,
        -1.6698230504989624
      ]
    },
    {
      "bufferView": 56,
      "componentType": 5126,
      "count": 400,
      "type": "VEC3"
    },
    {
      "bufferView": 57,
      "componentType": 5126,
      "count": 400,
      "type": "VEC2"
    },
    {
      "bufferView": 58,
      "componentType": 5123,
      "count": 1680,
      "type": "SCALAR"
    },
    {
      "bufferView": 59,
      "componentType": 5126,
      "count": 482,
      "type": "VEC3",
      "min": [
        -3.2026069164276123,
        0.9090359807014465,
        -2.1894209384918213
      ],
      "max": [
        -2.6878418922424316,
        0.9405410289764404,
        -1.6746560335159302
      ]
    },
    {
      "bufferView": 60,
      "componentType": 5126,
      "count": 482,
      "type": "VEC3"
    },
    {
      "bufferView": 61,
      "componentType": 5126,
      "count": 482,
      "type": "VEC2"
    },
    {
      "bufferView": 62,
      "componentType": 5123,
      "count": 2160,
      "type": "SCALAR"
    },
    {
      "bufferView": 63,
      "componentType": 5126,
      "count": 4070,
      "type": "VEC3",
      "min": [
        -1.2135920524597168,
        0.9167659878730774,
        -1.2964839935302734
      ],
      "max": [
        -0.8685610294342041,
        1.1836060285568237,
        -0.9268800020217896
      ]
    },
    {
      "bufferView": 64,
      "componentType": 5126,
      "count": 4070,
      "type": "VEC3"
    },
    {
      "bufferView": 65,
      "componentType": 5126,
      "count": 4070,
      "type": "VEC2"
    },
    {
      "bufferView": 66,
      "componentType": 5123,
      "count": 22872,
      "type": "SCALAR"
    },
    {
      "bufferView": 67,
      "componentType": 5126,
      "count": 1260,
      "type": "VEC3",
      "min": [
        -1.2135920524597168,
        0.9173470139503479,
        -1.2964839935302734
      ],
      "max": [
        -0.8685610294342041,
        1.1760430335998535,
        -0.9514529705047607
      ]
    },
    {
      "bufferView": 68,
      "componentType": 5126,
      "count": 1260,
      "type": "VEC3"
    },
    {
      "bufferView": 69,
      "componentType": 5126,
      "count": 1260,
      "type": "VEC2"
    },
    {
      "bufferView": 70,
      "componentType": 5123,
      "count": 6048,
      "type": "SCALAR"
    },
    {
      "bufferView": 71,
      "componentType": 5126,
      "count": 144,
      "type": "VEC3",
      "min": [
        -1.2987159490585327,
        0.9253860116004944,
        -1.381608009338379
      ],
      "max": [
        -0.7834370136260986,
        0.9420480132102966,
        -0.8663290143013
      ]
    },
    {
      "bufferView": 72,
      "componentType": 5126,
      "count": 144,
      "type": "VEC3"
    },
    {
      "bufferView": 73,
      "componentType": 5126,
      "count": 144,
      "type": "VEC2"
    },
    {
      "bufferView": 74,
      "componentType": 5123,
      "count": 480,
      "type": "SCALAR"
    },
    {
      "bufferView": 75,
      "componentType": 5126,
      "count": 400,
      "type": "VEC3",
      "min": [
        -1.3032920360565186,
        0.9165359735488892,
        -1.3861839771270752
      ],
      "max": [
        -0.7788609862327576,
        0.9410349726676941,
        -0.861752986907959
      ]
    },
    {
      "bufferView": 76,
      "componentType": 5126,
      "count": 400,
      "type": "VEC3"
    },
    {
      "bufferView": 77,
      "componentType": 5126,
      "count": 400,
      "type": "VEC2"
    },
    {
      "bufferView": 78,
      "componentType": 5123,
      "count": 1680,
      "type": "SCALAR"
    },
    {
      "bufferView": 79,
      "componentType": 5126,
      "count": 482,
      "type": "VEC3",
      "min": [
        -1.2984590530395508,
        0.909529983997345,
        -1.3813509941101074
      ],
      "max": [
        -0.7836940288543701,
        0.9410349726676941,
        -0.8665860295295715
      ]
    },
    {
      "bufferView": 80,
      "componentType": 5126,
      "count": 482,
      "type": "VEC3"
    },
    {
      "bufferView": 81,
      "componentType": 5126,
      "count": 482,
      "type": "VEC2"
    },
    {
      "bufferView": 82,
      "componentType": 5123,
      "count": 2160,
      "type": "SCALAR"
    },
    {
      "bufferView": 83,
      "componentType": 5126,
      "count": 2178,
      "type": "VEC3",
      "min": [
        -1.3244249820709229,
        0.923121988773346,
        -1.2843719720840454
      ],
      "max": [
        -1.0790200233459473,
        0.9497569799423218,
        -0.9901300072669983
      ]
    },
    {
      "bufferView": 84,
      "componentType": 5126,
      "count": 2178,
      "type": "VEC3"
    },
    {
      "bufferView": 85,
      "componentType": 5126,
      "count": 2178,
      "type": "VEC2"
    },
    {
      "bufferView": 86,
      "componentType": 5123,
      "count": 13056,
      "type": "SCALAR"
    },
    {
      "bufferView": 87,
      "componentType": 5126,
      "count": 3270,
      "type": "VEC3",
      "min": [
        -1.1572710275650024,
        0.8964099884033203,
        -2.262031078338623
      ],
      "max": [
        -0.33275800943374634,
        1.3958619832992554,
        -1.6179289817810059
      ]
    },
    {
      "bufferView": 88,
      "componentType": 5126,
      "count": 3270,
      "type": "VEC3"
    },
    {
      "bufferView": 89,
      "componentType": 5126,
      "count": 3270,
      "type": "VEC2"
    },
    {
      "bufferView": 90,
      "componentType": 5123,
      "count": 18960,
      "type": "SCALAR"
    },
    {
      "bufferView": 91,
      "componentType": 5126,
      "count": 6686,
      "type": "VEC3",
      "min": [
        -4.669762134552002,
        -0.21702900528907776,
        -2.7121269702911377
      ],
      "max": [
        -2.9410359859466553,
        1.1732410192489624,
        -1.2738679647445679
      ]
    },
    {
      "bufferView": 92,
      "componentType": 5126,
      "count": 6686,
      "type": "VEC3"
    },
    {
      "bufferView": 93,
      "componentType": 5126,
      "count": 6686,
      "type": "VEC2"
    },
    {
      "bufferView": 94,
      "componentType": 5123,
      "count": 39744,
      "type": "SCALAR"
    },
    {
      "bufferView": 95,
      "componentType": 5126,
      "count": 7404,
      "type": "VEC3",
      "min": [
        -4.360608100891113,
        -1.394919991493225,
        -2.628058910369873
      ],
      "max": [
        -3.114315986633301,
        -0.18033500015735626,
        -1.3579349517822266
      ]
    },
    {
      "bufferView": 96,
      "componentType": 5126,
      "count": 7404,
      "type": "VEC3"
    },
    {
      "bufferView": 97,
      "componentType": 5126,
      "count": 7404,
      "type": "VEC2"
    },
    {
      "bufferView": 98,
      "componentType": 5123,
      "count": 43440,
      "type": "SCALAR"
    },
    {
      "bufferView": 99,
      "componentType": 5126,
      "count": 1492,
      "type": "VEC3",
      "min": [
        -4.379487037658691,
        -1.4125709533691406,
        -2.646028995513916
      ],
      "max": [
        -3.096323013305664,
        -1.394906997680664,
        -1.3399649858474731
      ]
    },
    {
      "bufferView": 100,
      "componentType": 5126,
      "count": 1492,
      "type": "VEC3"
    },
    {
      "bufferView": 101,
      "componentType": 5126,
      "count": 1492,
      "type": "VEC2"
    },
    {
      "bufferView": 102,
      "componentType": 5123,
      "count": 6960,
      "type": "SCALAR"
    },
    {
      "bufferView": 103,
      "componentType": 5126,
      "count": 6686,
      "type": "VEC3",
      "min": [
        -2.554208993911743,
        -0.21702900528907776,
        -1.0029959678649902
      ],
      "max": [
        -1.1159499883651733,
        1.1732410192489624,
        0.7257310152053833
      ]
    },
    {
      "bufferView": 104,
      "componentType": 5126,
      "count": 6686,
      "type": "VEC3"
    },
    {
      "bufferView": 105,
      "componentType": 5126,
      "count": 6686,
      "type": "VEC2"
    },
    {
      "bufferView": 106,
      "componentType": 5123,
      "count": 39744,
      "type": "SCALAR"
    },
    {
      "bufferView": 107,
      "componentType": 5126,
      "count": 7404,
      "type": "VEC3",
      "min": [
        -2.4701409339904785,
        -1.394919991493225,
        -0.8297160267829895
      ],
      "max": [
        -1.200016975402832,
        -0.18033500015735626,
        0.416577011346817
      ]
    },
    {
      "bufferView": 108,
      "componentType": 5126,
      "count": 7404,
      "type": "VEC3"
    },
    {
      "bufferView": 109,
      "componentType": 5126,
      "count": 7404,
      "type": "VEC2"
    },
    {
      "bufferView": 110,
      "componentType": 5123,
      "count": 43440,
      "type": "SCALAR"
    },
    {
      "bufferView": 111,
      "componentType": 5126,
      "count": 1492,
      "type": "VEC3",
      "min": [
        -2.4881110191345215,
        -1.4125709533691406,
        -0.8477090001106262
      ],
      "max": [
        -1.1820470094680786,
        -1.394906997680664,
        0.4354560077190399
      ]
    },
    {
      "bufferView": 112,
      "componentType": 5126,
      "count": 1492,
      "type": "VEC3"
    },
    {
      "bufferView": 113,
      "componentType": 5126,
      "count": 1492,
      "type": "VEC2"
    },
    {
      "bufferView": 114,
      "componentType": 5123,
      "count": 6960,
      "type": "SCALAR"
    },
    {
      "bufferView": 115,
      "componentType": 5126,
      "count": 6686,
      "type": "VEC3",
      "min": [
        -0.1172889992594719,
        -0.21702900528907776,
        -1.0029959678649902
      ],
      "max": [
        1.320970058441162,
        1.1732410192489624,
        0.7257310152053833
      ]
    },
    {
      "bufferView": 116,
      "componentType": 5126,
      "count": 6686,
      "type": "VEC3"
    },
    {
      "bufferView": 117,
      "componentType": 5126,
      "count": 6686,
      "type": "VEC2"
    },
    {
      "bufferView": 118,
      "componentType": 5123,
      "count": 39744,
      "type": "SCALAR"
    },
    {
      "bufferView": 119,
      "componentType": 5126,
      "count": 7404,
      "type": "VEC3",
      "min": [
        -0.03322099894285202,
        -1.394919991493225,
        -0.8297160267829895
      ],
      "max": [
        1.2369029521942139,
        -0.18033500015735626,
        0.416577011346817
      ]
    },
    {
      "bufferView": 120,
      "componentType": 5126,
      "count": 7404,
      "type": "VEC3"
    },
    {
      "bufferView": 121,
      "componentType": 5126,
      "count": 7404,
      "type": "VEC2"
    },
    {
      "bufferView": 122,
      "componentType": 5123,
      "count": 43440,
      "type": "SCALAR"
    },
    {
      "bufferView": 123,
      "componentType": 5126,
      "count": 1492,
      "type": "VEC3",
      "min": [
        -0.051190998405218124,
        -1.4125709533691406,
        -0.8477090001106262
      ],
      "max": [
        1.2548730373382568,
        -1.394906997680664,
        0.4354560077190399
      ]
    },
    {
      "bufferView": 124,
      "componentType": 5126,
      "count": 1492,
      "type": "VEC3"
    },
    {
      "bufferView": 125,
      "componentType": 5126,
      "count": 1492,
      "type": "VEC2"
    },
    {
      "bufferView": 126,
      "componentType": 5123,
      "count": 6960,
      "type": "SCALAR"
    },
    {
      "bufferView": 127,
      "componentType": 5126,
      "count": 6686,
      "type": "VEC3",
      "min": [
        1.7098280191421509,
        -0.21702900528907776,
        -2.7125020027160645
      ],
      "max": [
        3.438554048538208,
        1.1732410192489624,
        -1.2742420434951782
      ]
    },
    {
      "bufferView": 128,
      "componentType": 5126,
      "count": 6686,
      "type": "VEC3"
    },
    {
      "bufferView": 129,
      "componentType": 5126,
      "count": 6686,
      "type": "VEC2"
    },
    {
      "bufferView": 130,
      "componentType": 5123,
      "count": 39744,
      "type": "SCALAR"
    },
    {
      "bufferView": 131,
      "componentType": 5126,
      "count": 7404,
      "type": "VEC3",
      "min": [
        1.8831080198287964,
        -1.394919991493225,
        -2.6284339427948
      ],
      "max": [
        3.1294000148773193,
        -0.18033500015735626,
        -1.3583099842071533
      ]
    },
    {
      "bufferView": 132,
      "componentType": 5126,
      "count": 7404,
      "type": "VEC3"
    },
    {
      "bufferView": 133,
      "componentType": 5126,
      "count": 7404,
      "type": "VEC2"
    },
    {
      "bufferView": 134,
      "componentType": 5123,
      "count": 43440,
      "type": "SCALAR"
    },
    {
      "bufferView": 135,
      "componentType": 5126,
      "count": 1492,
      "type": "VEC3",
      "min": [
        1.8651150465011597,
        -1.4125709533691406,
        -2.6464040279388428
      ],
      "max": [
        3.1482789516448975,
        -1.394906997680664,
        -1.3403400182724
      ]
    },
    {
      "bufferView": 136,
      "componentType": 5126,
      "count": 1492,
      "type": "VEC3"
    },
    {
      "bufferView": 137,
      "componentType": 5126,
      "count": 1492,
      "type": "VEC2"
    },
    {
      "bufferView": 138,
      "componentType": 5123,
      "count": 6960,
      "type": "SCALAR"
    },
    {
      "bufferView": 139,
      "componentType": 5126,
      "count": 6686,
      "type": "VEC3",
      "min": [
        -2.605354070663452,
        -0.21702900528907776,
        -4.361210823059082
      ],
      "max": [
        -1.1670949459075928,
        1.1732410192489624,
        -2.6324849128723145
      ]
    },
    {
      "bufferView": 140,
      "componentType": 5126,
      "count": 6686,
      "type": "VEC3"
    },
    {
      "bufferView": 141,
      "componentType": 5126,
      "count": 6686,
      "type": "VEC2"
    },
    {
      "bufferView": 142,
      "componentType": 5123,
      "count": 39744,
      "type": "SCALAR"
    },
    {
      "bufferView": 143,
      "componentType": 5126,
      "count": 7404,
      "type": "VEC3",
      "min": [
        -2.5212860107421875,
        -1.394919991493225,
        -4.052056789398193
      ],
      "max": [
        -1.2511630058288574,
        -0.18033500015735626,
        -2.8057661056518555
      ]
    },
    {
      "bufferView": 144,
      "componentType": 5126,
      "count": 7404,
      "type": "VEC3"
    },
    {
      "bufferView": 145,
      "componentType": 5126,
      "count": 7404,
      "type": "VEC2"
    },
    {
      "bufferView": 146,
      "componentType": 5123,
      "count": 43440,
      "type": "SCALAR"
    },
    {
      "bufferView": 147,
      "componentType": 5126,
      "count": 1492,
      "type": "VEC3",
      "min": [
        -2.539257049560547,
        -1.4125709533691406,
        -4.07093620300293
      ],
      "max": [
        -1.233191967010498,
        -1.394906997680664,
        -2.7877728939056396
      ]
    },
    {
      "bufferView": 148,
      "componentType": 5126,
      "count": 1492,
      "type": "VEC3"
    },
    {
      "bufferView": 149,
      "componentType": 5126,
      "count": 1492,
      "type": "VEC2"
    },
    {
      "bufferView": 150,
      "componentType": 5123,
      "count": 6960,
      "type": "SCALAR"
    },
    {
      "bufferView": 151,
      "componentType": 5126,
      "count": 96,
      "type": "VEC3",
      "min": [
        -3.594316005706787,
        0.7839069962501526,
        -3.214449882507324
      ],
      "max": [
        2.2598609924316406,
        0.9102830290794373,
        -0.6156539916992188
      ]
    },
    {
      "bufferView": 152,
      "componentType": 5126,
      "count": 96,
      "type": "VEC3"
    },
    {
      "bufferView": 153,
      "componentType": 5126,
      "count": 96,
      "type": "VEC2"
    },
    {
      "bufferView": 154,
      "componentType": 5123,
      "count": 132,
      "type": "SCALAR"
    },
    {
      "bufferView": 155,
      "componentType": 5126,
      "count": 6,
      "type": "VEC3",
      "min": [
        -6.30574893951416,
        -1.4199579954147339,
        -4.055528163909912
      ],
      "max": [
        5.133021831512451,
        -1.4199579954147339,
        9.888322830200195
      ]
    },
    {
      "bufferView": 156,
      "componentType": 5126,
      "count": 6,
      "type": "VEC3"
    },
    {
      "bufferView": 157,
      "componentType": 5126,
      "count": 6,
      "type": "VEC2"
    },
    {
      "bufferView": 158,
      "componentType": 5123,
      "count": 12,
      "type": "SCALAR"
    },
    {
      "bufferView": 159,
      "componentType": 5126,
      "count": 38,
      "type": "VEC3",
      "min": [
        -6.30574893951416,
        -1.4199579954147339,
        -4.542055130004883
      ],
      "max": [
        5.133021831512451,
        7.903083801269531,
        9.888322830200195
      ]
    },
    {
      "bufferView": 160,
      "componentType": 5126,
      "count": 38,
      "type": "VEC3"
    },
    {
      "bufferView": 161,
      "componentType": 5126,
      "count": 38,
      "type": "VEC2"
    },
    {
      "bufferView": 162,
      "componentType": 5123,
      "count": 90,
      "type": "SCALAR"
    },
    {
      "bufferView": 163,
      "componentType": 5126,
      "count": 6686,
      "type": "VEC3",
      "min": [
        -0.09223199635744095,
        -0.21702900528907776,
        -4.361210823059082
      ],
      "max": [
        1.3460270166397095,
        1.1732410192489624,
        -2.6324849128723145
      ]
    },
    {
      "bufferView": 164,
      "componentType": 5126,
      "count": 6686,
      "type": "VEC3"
    },
    {
      "bufferView": 165,
      "componentType": 5126,
      "count": 6686,
      "type": "VEC2"
    },
    {
      "bufferView": 166,
      "componentType": 5123,
      "count": 39744,
      "type": "SCALAR"
    },
    {
      "bufferView": 167,
      "componentType": 5126,
      "count": 7404,
      "type": "VEC3",
      "min": [
        -0.008163999766111374,
        -1.394919991493225,
        -4.052056789398193
      ],
      "max": [
        1.2619600296020508,
        -0.18033500015735626,
        -2.8057661056518555
      ]
    },
    {
      "bufferView": 168,
      "componentType": 5126,
      "count": 7404,
      "type": "VEC3"
    },
    {
      "bufferView": 169,
      "componentType": 5126,
      "count": 7404,
      "type": "VEC2"
    },
    {
      "bufferView": 170,
      "componentType": 5123,
      "count": 43440,
      "type": "SCALAR"
    },
    {
      "bufferView": 171,
      "componentType": 5126,
      "count": 1492,
      "type": "VEC3",
      "min": [
        -0.026133999228477478,
        -1.4125720262527466,
        -4.07093620300293
      ],
      "max": [
        1.2799299955368042,
        -1.394906997680664,
        -2.7877728939056396
      ]
    },
    {
      "bufferView": 172,
      "componentType": 5126,
      "count": 1492,
      "type": "VEC3"
    },
    {
      "bufferView": 173,
      "componentType": 5126,
      "count": 1492,
      "type": "VEC2"
    },
    {
      "bufferView": 174,
      "componentType": 5123,
      "count": 6960,
      "type": "SCALAR"
    },
    {
      "bufferView": 175,
      "componentType": 5126,
      "count": 9150,
      "type": "VEC3",
      "min": [
        -0.48654499650001526,
        0.8996949791908264,
        -2.684617042541504
      ],
      "max": [
        0.2658329904079437,
        1.9220900535583496,
        -2.0961670875549316
      ]
    },
    {
      "bufferView": 176,
      "componentType": 5126,
      "count": 9150,
      "type": "VEC3"
    },
    {
      "bufferView": 177,
      "componentType": 5126,
      "count": 9150,
      "type": "VEC2"
    },
    {
      "bufferView": 178,
      "componentType": 5123,
      "count": 54528,
      "type": "SCALAR"
    },
    {
      "bufferView": 179,
      "componentType": 5126,
      "count": 4070,
      "type": "VEC3",
      "min": [
        1.4444340467453003,
        0.9167659878730774,
        -1.1631150245666504
      ],
      "max": [
        1.8593289852142334,
        1.1836060285568237,
        -0.8222709894180298
      ]
    },
    {
      "bufferView": 180,
      "componentType": 5126,
      "count": 4070,
      "type": "VEC3"
    },
    {
      "bufferView": 181,
      "componentType": 5126,
      "count": 4070,
      "type": "VEC2"
    },
    {
      "bufferView": 182,
      "componentType": 5123,
      "count": 22872,
      "type": "SCALAR"
    },
    {
      "bufferView": 183,
      "componentType": 5126,
      "count": 1260,
      "type": "VEC3",
      "min": [
        1.4444340467453003,
        0.9173470139503479,
        -1.1631150245666504
      ],
      "max": [
        1.7851510047912598,
        1.1760430335998535,
        -0.8222709894180298
      ]
    },
    {
      "bufferView": 184,
      "componentType": 5126,
      "count": 1260,
      "type": "VEC3"
    },
    {
      "bufferView": 185,
      "componentType": 5126,
      "count": 1260,
      "type": "VEC2"
    },
    {
      "bufferView": 186,
      "componentType": 5123,
      "count": 6048,
      "type": "SCALAR"
    },
    {
      "bufferView": 187,
      "componentType": 5126,
      "count": 2178,
      "type": "VEC3",
      "min": [
        1.5308339595794678,
        0.923121988773346,
        -0.8996869921684265
      ],
      "max": [
        1.900967001914978,
        0.9497569799423218,
        -0.8136609792709351
      ]
    },
    {
      "bufferView": 188,
      "componentType": 5126,
      "count": 2178,
      "type": "VEC3"
    },
    {
      "bufferView": 189,
      "componentType": 5126,
      "count": 2178,
      "type": "VEC2"
    },
    {
      "bufferView": 190,
      "componentType": 5123,
      "count": 13056,
      "type": "SCALAR"
    },
    {
      "bufferView": 191,
      "componentType": 5126,
      "count": 144,
      "type": "VEC3",
      "min": [
        1.356145977973938,
        0.9253860116004944,
        -1.251404047012329
      ],
      "max": [
        1.87356698513031,
        0.9420480132102966,
        -0.7339829802513123
      ]
    },
    {
      "bufferView": 192,
      "componentType": 5126,
      "count": 144,
      "type": "VEC3"
    },
    {
      "bufferView": 193,
      "componentType": 5126,
      "count": 144,
      "type": "VEC2"
    },
    {
      "bufferView": 194,
      "componentType": 5123,
      "count": 480,
      "type": "SCALAR"
    },
    {
      "bufferView": 195,
      "componentType": 5126,
      "count": 400,
      "type": "VEC3",
      "min": [
        1.3515510559082031,
        0.9165359735488892,
        -1.2559980154037476
      ],
      "max": [
        1.8781609535217285,
        0.9410349726676941,
        -0.7293879985809326
      ]
    },
    {
      "bufferView": 196,
      "componentType": 5126,
      "count": 400,
      "type": "VEC3"
    },
    {
      "bufferView": 197,
      "componentType": 5126,
      "count": 400,
      "type": "VEC2"
    },
    {
      "bufferView": 198,
      "componentType": 5123,
      "count": 1680,
      "type": "SCALAR"
    },
    {
      "bufferView": 199,
      "componentType": 5126,
      "count": 482,
      "type": "VEC3",
      "min": [
        1.3564039468765259,
        0.909529983997345,
        -1.2511450052261353
      ],
      "max": [
        1.8733079433441162,
        0.9410349726676941,
        -0.7342410087585449
      ]
    },
    {
      "bufferView": 200,
      "componentType": 5126,
      "count": 482,
      "type": "VEC3"
    },
    {
      "bufferView": 201,
      "componentType": 5126,
      "count": 482,
      "type": "VEC2"
    },
    {
      "bufferView": 202,
      "componentType": 5123,
      "count": 2160,
      "type": "SCALAR"
    },
    {
      "bufferView": 203,
      "componentType": 5126,
      "count": 470,
      "type": "VEC3",
      "min": [
        -1.076480746269226,
        -1.5206475257873535,
        -0.028002262115478516
      ],
      "max": [
        1.0764802694320679,
        1.5206427574157715,
        0.16387271881103516
      ]
    },
    {
      "bufferView": 204,
      "componentType": 5126,
      "count": 470,
      "type": "VEC3"
    },
    {
      "bufferView": 205,
      "componentType": 5126,
      "count": 470,
      "type": "VEC2"
    },
    {
      "bufferView": 206,
      "componentType": 5123,
      "count": 510,
      "type": "SCALAR"
    },
    {
      "bufferView": 207,
      "componentType": 5126,
      "count": 58,
      "type": "VEC3",
      "min": [
        -6.353185176849365,
        -1.418362021446228,
        -4.53226900100708
      ],
      "max": [
        5.263339996337891,
        -1.1411659717559814,
        -4.5004401206970215
      ]
    },
    {
      "bufferView": 208,
      "componentType": 5126,
      "count": 58,
      "type": "VEC3"
    },
    {
      "bufferView": 209,
      "componentType": 5126,
      "count": 58,
      "type": "VEC2"
    },
    {
      "bufferView": 210,
      "componentType": 5123,
      "count": 66,
      "type": "SCALAR"
    },
    {
      "bufferView": 211,
      "componentType": 5126,
      "count": 4,
      "type": "VEC3",
      "min": [
        -6.29999,
        -1.51685,
        -4.644
      ],
      "max": [
        -6.29999,
        8.03075,
        10.044
      ]
    },
    {
      "bufferView": 212,
      "componentType": 5126,
      "count": 4,
      "type": "VEC3"
    },
    {
      "bufferView": 213,
      "componentType": 5126,
      "count": 4,
      "type": "VEC2"
    },
    {
      "bufferView": 214,
      "componentType": 5123,
      "count": 6,
      "type": "SCALAR"
    }
  ],
  "extras": {
    "sourceFormat": "pbrt-v4",
    "sceneId": "breakfast-room"
  },
  "images": [
    {
      "name": "Texture01",
      "bufferView": 0,
      "mimeType": "image/png"
    },
    {
      "name": "Texture02",
      "bufferView": 1,
      "mimeType": "image/png"
    },
    {
      "name": "Texture03",
      "bufferView": 2,
      "mimeType": "image/png"
    }
  ],
  "textures": [
    {
      "source": 0,
      "sampler": 0
    },
    {
      "source": 1,
      "sampler": 0
    },
    {
      "source": 2,
      "sampler": 0
    }
  ],
  "samplers": [
    {
      "magFilter": 9729,
      "minFilter": 9987,
      "wrapS": 10497,
      "wrapT": 10497
    }
  ],
  "cameras": [
    {
      "name": "Camera",
      "type": "perspective",
      "perspective": {
        "yfov": 0.6280288060621276,
        "znear": 0.01,
        "zfar": 100.0
      }
    }
  ]
}
